# xmcd
#
# Track frame offsets:
#	150
#	13970
#	29885
#	46122
#	60499
#	74355
#	88224
#	104753
#	120249
#	133734
#	147536
#	164784
#	180264
#	195474
#	210538
#	223659
#	234847
#	249676
#
# Disc length: 3491 seconds
#
# Revision: 0
# Processed by: cddbd v1.5.2PL0 Copyright (c) Steve Scherf et al.
# Submitted via: EasyCDDAExtractor 16.0.9.1
#
DISCID=110da112
DTITLE=Nu Country Traxx Volume 196 US
DYEAR=2015
DGENRE=country
TTITLE0=Blake Shelton\n - Gonna\n
TTITLE1=Cassadee Pope\n - I Am Invincible\n
TTITLE2=Kacey Musgraves\n - Dime Store Cowgirl\n
TTITLE3=David Nail\n - Night's On Fire\n
TTITLE4=Kelsea Ballerini\n - Dibs\n
TTITLE5=Andy Grammer duet with Eli Young Band\n - Honey I'm Good\n
TTITLE6=Emerson Drive\n - Til The Summer's Gone\n
TTITLE7=Carissa Leigh\n - Pack That Bag\n
TTITLE8=Easton Corbin - Yup
TTITLE9=Heather Longstaffe\n - Rooftops\n
TTITLE10=The Lacs ft. Josh Thompson\n - Tonight On Repeat\n
TTITLE11=Jerrod Niemann\n - Blue Bandana\n
TTITLE12=Uncle Ezra Ray\n - Bring Your Hot Body (B.Y.H.B]\n
TTITLE13=Ronnie Dunn\n - Ain't No Trucks In Texas\n
TTITLE14=Sarah Ross\n - Calm Before The Storm\n
TTITLE15=Waterloo Revival\n - Bad For You\n
TTITLE16=Tyler Steel\n - Drink #5\n
TTITLE17=The Lovelocks\n - Born To Love\n
EXTD=
EXTT0=
EXTT1=
EXTT2=
EXTT3=
EXTT4=
EXTT5=
EXTT6=
EXTT7=
EXTT8=
EXTT9=
EXTT10=
EXTT11=
EXTT12=
EXTT13=
EXTT14=
EXTT15=
EXTT16=
EXTT17=
PLAYORDER=
